<svg height="512pt" viewBox="0 0 512 512" width="512pt" xmlns="http://www.w3.org/2000/svg"><path d="m512 256c0 141.386719-114.613281 256-256 256s-256-114.613281-256-256 114.613281-256 256-256 256 114.613281 256 256zm0 0" fill="#ff633e"/><path d="m506.871094 307.210938-132.417969-132.417969-56.03125-23.433594-36.082031-36.542969-167.523438 167.523438 36.542969 36.082031 23.1875 55.785156 132.664063 132.664063c100.296874-20.363282 179.296874-99.363282 199.660156-199.660156zm0 0" fill="#e70020"/><path d="m355.457031 288.703125c-1.632812 4.972656-3.640625 9.828125-6.007812 14.5l25.003906 34.003906-37.246094 37.246094-34.003906-25.003906c-4.671875 2.367187-9.523437 4.375-14.5 6.007812l-6.363281 41.726563h-52.679688l-6.363281-41.726563c-4.972656-1.632812-9.828125-3.640625-14.5-6.007812l-34.003906 25.003906-37.246094-37.246094 25.003906-34.003906c-2.367187-4.671875-4.375-9.523437-6.007812-14.5l-41.726563-6.363281v-52.679688l41.726563-6.363281c1.632812-4.980469 3.640625-9.828125 6.007812-14.5l-25.003906-34.003906 37.246094-37.246094 34.003906 25.003906c4.671875-2.367187 9.523437-4.375 14.5-6.007812l6.363281-41.726563h52.679688l6.363281 41.726563c4.980469 1.632812 9.828125 3.640625 14.5 6.007812l34.003906-25.003906 37.246094 37.246094-25.003906 34.003906c2.367187 4.671875 4.375 9.519531 6.007812 14.5l41.726563 6.363281v52.679688zm0 0" fill="#c5c9f7"/><path d="m355.457031 288.703125c-1.632812 4.972656-3.640625 9.828125-6.007812 14.5l25.003906 34.003906-37.246094 37.246094-34.003906-25.003906c-4.671875 2.367187-9.523437 4.375-14.5 6.007812l-6.363281 41.726563h-26.339844v-282.367188h26.339844l6.363281 41.726563c4.980469 1.632812 9.828125 3.640625 14.5 6.007812l34.003906-25.003906 37.246094 37.246094-25.003906 34.003906c2.367187 4.671875 4.375 9.519531 6.007812 14.5l41.726563 6.363281v52.679688zm0 0" fill="#a7aff2"/><path d="m325.488281 256c0 38.316406-31.171875 69.488281-69.488281 69.488281s-69.488281-31.171875-69.488281-69.488281 31.171875-69.488281 69.488281-69.488281 69.488281 31.171875 69.488281 69.488281zm0 0" fill="#7985eb"/><path d="m325.488281 256c0 38.316406-31.171875 69.488281-69.488281 69.488281v-138.976562c38.316406 0 69.488281 31.171875 69.488281 69.488281zm0 0" fill="#4b5be6"/><path d="m290.191406 256c0 18.855469-15.335937 34.191406-34.191406 34.191406s-34.191406-15.335937-34.191406-34.191406 15.335937-34.191406 34.191406-34.191406 34.191406 15.335937 34.191406 34.191406zm0 0" fill="#97a1f0"/><path d="m290.191406 256c0 18.855469-15.335937 34.191406-34.191406 34.191406v-68.382812c18.855469 0 34.191406 15.335937 34.191406 34.191406zm0 0" fill="#7985eb"/></svg>